HIERARCHY
ROOT hip
{
  OFFSET 0 0 0
  CHANNELS 6 Xposition Yposition Zposition Zrotation Yrotation Xrotation
  JOINT abdomen
  {
    OFFSET 0 20.6881 -0.73152
    CHANNELS 3 Zrotation Xrotation Yrotation
    JOINT chest
    {
      OFFSET 0 11.7043 -0.48768
      CHANNELS 3 Zrotation Xrotation Yrotation
      JOINT neck
      {
        OFFSET 0 22.1894 -2.19456
        CHANNELS 3 Zrotation Xrotation Yrotation
        JOINT head
        {
          OFFSET -0.24384 7.07133 1.2192
          CHANNELS 3 Zrotation Xrotation Yrotation
          JOINT leftEye
          {
            OFFSET 4.14528 8.04674 8.04672
            CHANNELS 3 Zrotation Xrotation Yrotation
            End Site
            {
              OFFSET 1 0 0
            }
          }
          JOINT rightEye
          {
            OFFSET -3.6576 8.04674 8.04672
            CHANNELS 3 Zrotation Xrotation Yrotation
            End Site
            {
              OFFSET 1 0 0
            }
          }
        }
      }
      JOINT rCollar
      {
        OFFSET -2.68224 19.2634 -4.8768
        CHANNELS 3 Zrotation Xrotation Yrotation
        JOINT rShldr
        {
          OFFSET -8.77824 -1.95073 1.46304
          CHANNELS 3 Zrotation Xrotation Yrotation
          JOINT rForeArm
          {
            OFFSET -28.1742 -1.7115 0.48768
            CHANNELS 3 Zrotation Xrotation Yrotation
            JOINT rHand
            {
              OFFSET -22.5879 0.773209 7.07136
              CHANNELS 3 Zrotation Xrotation Yrotation
              JOINT rThumb1
              {
                OFFSET -1.2192 -0.487915 3.41376
                CHANNELS 3 Zrotation Xrotation Yrotation
                JOINT rThumb2
                {
                  OFFSET -3.37035 -0.52449 3.41376
                  CHANNELS 3 Zrotation Xrotation Yrotation
                  End Site
                  {
                    OFFSET -1.78271 -1.18214 1.43049
                  }
                }
              }
              JOINT rIndex1
              {
                OFFSET -7.75947 0.938293 5.60832
                CHANNELS 3 Zrotation Xrotation Yrotation
                JOINT rIndex2
                {
                  OFFSET -2.54057 -0.884171 1.56538
                  CHANNELS 3 Zrotation Xrotation Yrotation
                  End Site
                  {
                    OFFSET -1.62519 -0.234802 1.16502
                  }
                }
              }
              JOINT rMid1
              {
                OFFSET -8.24714 1.18213 3.41376
                CHANNELS 3 Zrotation Xrotation Yrotation
                JOINT rMid2
                {
                  OFFSET -3.10165 -0.590103 1.0647
                  CHANNELS 3 Zrotation Xrotation Yrotation
                  End Site
                  {
                    OFFSET -2.48547 -0.328903 0.83742
                  }
                }
              }
              JOINT rRing1
              {
                OFFSET -8.82822 0.546677 1.51678
                CHANNELS 3 Zrotation Xrotation Yrotation
                JOINT rRing2
                {
                  OFFSET -2.60934 -0.819778 -0.0198488
                  CHANNELS 3 Zrotation Xrotation Yrotation
                  End Site
                  {
                    OFFSET -2.33842 -0.294052 0.168128
                  }
                }
              }
              JOINT rPinky1
              {
                OFFSET -8.27202 -0.0477905 -0.4584
                CHANNELS 3 Zrotation Xrotation Yrotation
                JOINT rPinky2
                {
                  OFFSET -1.82734 -0.647385 -0.700984
                  CHANNELS 3 Zrotation Xrotation Yrotation
                  End Site
                  {
                    OFFSET -1.69225 -0.51767 -0.607171
                  }
                }
              }
            }
          }
        }
      }
      JOINT lCollar
      {
        OFFSET 2.68224 19.2634 -4.8768
        CHANNELS 3 Zrotation Xrotation Yrotation
        JOINT lShldr
        {
          OFFSET 8.77824 -1.95073 1.46304
          CHANNELS 3 Zrotation Xrotation Yrotation
          JOINT lForeArm
          {
            OFFSET 28.1742 -1.7115 0.48768
            CHANNELS 3 Zrotation Xrotation Yrotation
            JOINT lHand
            {
              OFFSET 22.5879 0.773209 7.07136
              CHANNELS 3 Zrotation Xrotation Yrotation
              JOINT lThumb1
              {
                OFFSET 1.2192 -0.487915 3.41376
                CHANNELS 3 Zrotation Xrotation Yrotation
                JOINT lThumb2
                {
                  OFFSET 3.37035 -0.52449 3.41376
                  CHANNELS 3 Zrotation Xrotation Yrotation
                  End Site
                  {
                    OFFSET 1.78271 -1.18214 1.43049
                  }
                }
              }
              JOINT lIndex1
              {
                OFFSET 7.75947 0.938293 5.60832
                CHANNELS 3 Zrotation Xrotation Yrotation
                JOINT lIndex2
                {
                  OFFSET 2.54057 -0.884171 1.56538
                  CHANNELS 3 Zrotation Xrotation Yrotation
                  End Site
                  {
                    OFFSET 1.62519 -0.234802 1.16502
                  }
                }
              }
              JOINT lMid1
              {
                OFFSET 8.24714 1.18213 3.41376
                CHANNELS 3 Zrotation Xrotation Yrotation
                JOINT lMid2
                {
                  OFFSET 3.10165 -0.590103 1.0647
                  CHANNELS 3 Zrotation Xrotation Yrotation
                  End Site
                  {
                    OFFSET 2.48547 -0.328903 0.83742
                  }
                }
              }
              JOINT lRing1
              {
                OFFSET 8.82822 0.546677 1.51678
                CHANNELS 3 Zrotation Xrotation Yrotation
                JOINT lRing2
                {
                  OFFSET 2.60934 -0.819778 -0.0198488
                  CHANNELS 3 Zrotation Xrotation Yrotation
                  End Site
                  {
                    OFFSET 2.33842 -0.294052 0.168128
                  }
                }
              }
              JOINT lPinky1
              {
                OFFSET 8.27202 -0.0477905 -0.4584
                CHANNELS 3 Zrotation Xrotation Yrotation
                JOINT lPinky2
                {
                  OFFSET 1.82734 -0.647385 -0.700984
                  CHANNELS 3 Zrotation Xrotation Yrotation
                  End Site
                  {
                    OFFSET 1.69225 -0.51767 -0.607171
                  }
                }
              }
            }
          }
        }
      }
    }
  }
  JOINT rButtock
  {
    OFFSET -8.77824 4.35084 1.2192
    CHANNELS 3 Zrotation Xrotation Yrotation
    JOINT rThigh
    {
      OFFSET 0 -1.70687 -2.19456
      CHANNELS 3 Zrotation Xrotation Yrotation
      JOINT rShin
      {
        OFFSET 0 -36.8199 0.73152
        CHANNELS 3 Zrotation Xrotation Yrotation
        JOINT rFoot
        {
          OFFSET 0.73152 -45.1104 -5.12064
          CHANNELS 3 Zrotation Xrotation Yrotation
          End Site
          {
            OFFSET -1.1221 -3.69964 12.103
          }
        }
      }
    }
  }
  JOINT lButtock
  {
    OFFSET 8.77824 4.35084 1.2192
    CHANNELS 3 Zrotation Xrotation Yrotation
    JOINT lThigh
    {
      OFFSET 0 -1.70687 -2.19456
      CHANNELS 3 Zrotation Xrotation Yrotation
      JOINT lShin
      {
        OFFSET 0 -36.8199 0.73152
        CHANNELS 3 Zrotation Xrotation Yrotation
        JOINT lFoot
        {
          OFFSET -0.73152 -45.1104 -5.12064
          CHANNELS 3 Zrotation Xrotation Yrotation
          End Site
          {
            OFFSET 1.1221 -3.69964 12.103
          }
        }
      }
    }
  }
}
MOTION
Frames:	6
Frame Time:	0.00833333
8.81847 83.4609 17.7351 -89.6944 -79.7351 99.1945 7.87441 -2.91751 3.47517 -0.525914 -0.426012 0.836288 -9.3949 5.24835 -7.04564 10.9978 -17.2792 -10.5809 -0.0 0.0 0.0 -0.0 0.0 0.0 -1.58228e-13 -3.91149e-12 7.01182e-15 73.6983 21.6891 -0.102499 -26.6943 -25.3733 59.8562 -0.149591 10.9847 1.56308 -1.19624e-09 -5.77578e-10 1.15479e-09 -2.0567e-09 -9.95834e-10 2.00449e-09 -1.19624e-09 -5.77569e-10 1.15478e-09 7.73091 5.47488 0.417314 -1.19624e-09 -5.77571e-10 1.1548e-09 2.90554 0.965183 0.102902 -1.19624e-09 -5.7757e-10 1.1548e-09 10.2786 0.731801 0.0259123 -1.19624e-09 -5.77567e-10 1.15479e-09 2.22167 -0.733487 -0.20892 -1.58272e-13 -3.91148e-12 6.71869e-15 -84.7107 11.3877 4.17744 14.0958 -7.03176 -25.7477 0.730221 23.5184 -3.50656 -6.11894e-11 6.03191e-10 1.61493e-09 -7.77908e-11 1.03343e-09 2.78839e-09 -6.11949e-11 6.03188e-10 1.61493e-09 -7.73091 5.47488 -0.417314 -6.11918e-11 6.03187e-10 1.61492e-09 -2.90554 0.965183 -0.102902 -6.11982e-11 6.03187e-10 1.61492e-09 -10.2786 0.731801 -0.0259123 -6.11839e-11 6.03185e-10 1.61491e-09 -2.22167 -0.733487 0.20892 -2.03217e-16 0.0 -3.88251e-19 13.5533 -2.14773 4.08198 -0.100139 16.9504 0.176703 -2.18924 -12.3639 -6.17445 2.03217e-16 0.0 3.88251e-19 18.1026 -38.9404 -1.90823 0.0630235 15.9777 0.138521 1.07743 -2.3664 7.48831
7.94377 83.3346 17.864 -90.0828 -79.7969 99.4761 7.86024 -2.75745 3.46109 -0.448503 -0.420132 0.83263 -9.35771 5.25679 -6.94739 10.7909 -17.8513 -10.3725 -0.0 0.0 0.0 -0.0 0.0 0.0 -1.33392e-13 -3.7292e-12 -4.90128e-15 75.2847 20.3577 -0.666336 -26.243 -24.0688 57.7938 -0.122882 9.9894 1.41827 -1.085e-09 -8.65119e-10 1.33203e-09 -1.86403e-09 -1.49173e-09 2.30793e-09 -1.08499e-09 -8.65113e-10 1.33201e-09 7.73091 5.47488 0.417314 -1.085e-09 -8.65117e-10 1.33203e-09 2.90554 0.965183 0.102902 -1.085e-09 -8.65116e-10 1.33203e-09 10.2786 0.731801 0.0259123 -1.085e-09 -8.65112e-10 1.33203e-09 2.22167 -0.733487 -0.20892 -1.33435e-13 -3.7292e-12 -5.1653e-15 -84.837 11.436 4.55148 14.0792 -7.01774 -25.7151 0.720194 23.3668 -3.48123 -1.19962e-11 6.40917e-10 1.85641e-09 1.20453e-11 1.09725e-09 3.20503e-09 -1.20012e-11 6.40914e-10 1.85641e-09 -7.73091 5.47488 -0.417314 -1.19992e-11 6.40912e-10 1.85641e-09 -2.90554 0.965183 -0.102902 -1.20052e-11 6.40913e-10 1.85641e-09 -10.2786 0.731801 -0.0259123 -1.19923e-11 6.40912e-10 1.8564e-09 -2.22167 -0.733487 0.20892 -2.03217e-16 0.0 -3.88251e-19 13.4501 -1.96931 4.26182 -0.105666 17.8279 0.198773 -2.24574 -12.5083 -6.305 2.03217e-16 0.0 3.88251e-19 17.8462 -38.931 -1.81435 0.0650982 16.8138 0.13357 0.886141 -1.40571 6.5805
7.05713 83.2185 18.0149 -90.7948 -79.9376 100.075 7.76795 -2.59893 3.4423 -0.367748 -0.416173 0.828443 -9.30505 5.26718 -6.84486 10.6213 -18.3735 -10.1616 -0.0 0.0 0.0 -0.0 0.0 0.0 -8.84167e-14 -2.98661e-12 -1.77804e-14 76.6395 19.1549 -1.16829 -25.7233 -22.7302 55.6582 -0.0995658 8.99745 1.27496 -9.16913e-10 -1.07933e-09 1.39885e-09 -1.57375e-09 -1.86116e-09 2.42023e-09 -9.16901e-10 -1.07933e-09 1.39883e-09 7.73091 5.47488 0.417314 -9.16911e-10 -1.07933e-09 1.39885e-09 2.90554 0.965183 0.102902 -9.16906e-10 -1.07933e-09 1.39885e-09 10.2786 0.731801 0.0259123 -9.16916e-10 -1.07933e-09 1.39884e-09 2.22167 -0.733487 -0.20892 -8.84578e-14 -2.9866e-12 -1.80075e-14 -84.9329 11.4465 4.92801 14.0399 -6.98579 -25.636 0.714074 23.274 -3.46574 -4.84751e-12 6.00746e-10 1.86243e-09 2.49238e-11 1.02821e-09 3.21597e-09 -4.85202e-12 6.00743e-10 1.86243e-09 -7.73091 5.47488 -0.417314 -4.85102e-12 6.00739e-10 1.86243e-09 -2.90554 0.965183 -0.102902 -4.85656e-12 6.00742e-10 1.86243e-09 -10.2786 0.731801 -0.0259123 -4.84542e-12 6.00742e-10 1.86242e-09 -2.22167 -0.733487 0.20892 -2.03217e-16 0.0 -3.88251e-19 13.2773 -1.84817 4.45005 -0.112013 18.8257 0.221808 -2.29332 -12.5712 -6.42678 2.03217e-16 0.0 3.88251e-19 17.485 -38.8655 -1.794 0.0676802 17.6252 0.129786 0.712698 -0.359119 5.66393
6.16427 83.1143 18.1926 -91.7528 -80.1781 100.932 7.55569 -2.46622 3.39906 -0.278201 -0.409057 0.818098 -9.23828 5.26519 -6.73756 10.4792 -18.814 -9.94559 -0.0 0.0 0.0 -0.0 0.0 0.0 -3.7949e-14 -1.72067e-12 -2.65378e-14 77.7645 18.1953 -1.59873 -25.1339 -21.3862 53.4275 -0.0805233 8.06887 1.14164 -7.38064e-10 -1.03908e-09 1.26729e-09 -1.26561e-09 -1.79158e-09 2.19077e-09 -7.38049e-10 -1.03908e-09 1.26727e-09 7.73091 5.47488 0.417314 -7.38059e-10 -1.03909e-09 1.2673e-09 2.90554 0.965183 0.102902 -7.38055e-10 -1.03909e-09 1.26729e-09 10.2786 0.731801 0.0259123 -7.38067e-10 -1.03908e-09 1.26729e-09 2.22167 -0.733487 -0.20892 -3.79892e-14 -1.72067e-12 -2.67365e-14 -84.989 11.3567 5.27733 13.9599 -6.92214 -25.4735 0.715561 23.2985 -3.46978 -2.4829e-11 4.74796e-10 1.54505e-09 -1.52424e-11 8.12873e-10 2.66885e-09 -2.48334e-11 4.74794e-10 1.54505e-09 -7.73091 5.47488 -0.417314 -2.48327e-11 4.7479e-10 1.54505e-09 -2.90554 0.965183 -0.102902 -2.48374e-11 4.74793e-10 1.54505e-09 -10.2786 0.731801 -0.0259123 -2.48282e-11 4.74794e-10 1.54505e-09 -2.22167 -0.733487 0.20892 -2.03217e-16 0.0 -3.88251e-19 12.9869 -1.84731 4.60428 -0.119222 19.9848 0.245462 -2.31415 -12.5053 -6.49783 2.03217e-16 0.0 3.88251e-19 16.9849 -38.7907 -1.82254 0.0710124 18.3992 0.126663 0.579178 0.63634 4.85431
5.2645 83.0294 18.3979 -92.9136 -80.5247 101.992 7.14711 -2.37188 3.32949 -0.162908 -0.397693 0.801962 -9.15313 5.24345 -6.62275 10.3684 -19.1615 -9.71913 -0.0 0.0 0.0 -0.0 0.0 0.0 3.07924e-14 5.96301e-13 -3.12107e-14 78.6423 17.5164 -1.94886 -24.4619 -20.002 51.0522 -0.0630594 7.15704 1.01122 -5.23809e-10 -5.73703e-10 7.2193e-10 -8.97931e-10 -9.88518e-10 1.24755e-09 -5.23795e-10 -5.73703e-10 7.2191e-10 7.73091 5.47488 0.417314 -5.23805e-10 -5.73708e-10 7.21932e-10 2.90554 0.965183 0.102902 -5.23799e-10 -5.73708e-10 7.2193e-10 10.2786 0.731801 0.0259123 -5.23812e-10 -5.73703e-10 7.21929e-10 2.22167 -0.733487 -0.20892 3.07583e-14 5.96302e-13 -3.13878e-14 -84.9985 11.1697 5.59785 13.8352 -6.8223 -25.2226 0.725176 23.4405 -3.4936 -1.87425e-10 2.42548e-10 7.37125e-10 -3.10807e-10 4.17638e-10 1.27749e-09 -1.8743e-10 2.42548e-10 7.37125e-10 -7.73091 5.47488 -0.417314 -1.87428e-10 2.42544e-10 7.37123e-10 -2.90554 0.965183 -0.102902 -1.87432e-10 2.42547e-10 7.37121e-10 -10.2786 0.731801 -0.0259123 -1.87425e-10 2.42548e-10 7.37119e-10 -2.22167 -0.733487 0.20892 -2.03217e-16 0.0 -3.88251e-19 12.5278 -1.97196 4.74651 -0.126871 21.3153 0.270256 -2.31693 -12.3447 -6.53281 2.03217e-16 0.0 3.88251e-19 16.2855 -38.7223 -1.90898 0.0751568 19.1186 0.124409 0.474919 1.61762 4.16681
4.35943 82.9656 18.6274 -94.1324 -80.9564 103.113 6.58633 -2.30095 3.24297 -0.0299359 -0.384701 0.782415 -9.05031 5.21076 -6.50157 10.2905 -19.4336 -9.48498 -0.0 0.0 0.0 -0.0 0.0 0.0 1.20057e-13 3.80483e-12 -3.40481e-14 79.2919 17.0557 -2.23057 -23.6877 -18.5372 48.5491 -0.0472486 6.25087 0.882005 -2.6188e-10 1.79417e-10 -1.26333e-10 -4.49142e-10 3.10962e-10 -2.18478e-10 -2.61869e-10 1.79415e-10 -1.26349e-10 7.73091 5.47488 0.417314 -2.61877e-10 1.79412e-10 -1.26333e-10 2.90554 0.965183 0.102902 -2.6187e-10 1.79413e-10 -1.26333e-10 10.2786 0.731801 0.0259123 -2.61882e-10 1.79417e-10 -1.2633e-10 2.22167 -0.733487 -0.20892 1.20033e-13 3.80483e-12 -3.42034e-14 -84.9656 10.9125 5.90299 13.6738 -6.69319 -24.9016 0.741324 23.6738 -3.53293 -4.60769e-10 -8.56573e-11 -4.6656e-10 -8.04947e-10 -1.40332e-10 -7.95013e-10 -4.60775e-10 -8.56538e-11 -4.66553e-10 -7.73091 5.47488 -0.417314 -4.60772e-10 -8.56564e-11 -4.66559e-10 -2.90554 0.965183 -0.102902 -4.60773e-10 -8.56556e-11 -4.66563e-10 -10.2786 0.731801 -0.0259123 -4.60769e-10 -8.56543e-11 -4.66566e-10 -2.22167 -0.733487 0.20892 -2.03217e-16 0.0 -3.88251e-19 11.9396 -2.19227 4.88833 -0.135577 22.7955 0.296471 -2.30634 -12.0992 -6.54549 2.03217e-16 0.0 3.88251e-19 15.4226 -38.6341 -2.06092 0.0799024 19.7948 0.123194 0.389283 2.63203 3.54397
